<?xml version="1.0" encoding="UTF-8" standalone="no"?>
<!-- Created with Inkscape (http://www.inkscape.org/) -->

<svg
   width="129.6707mm"
   height="39.801476mm"
   viewBox="0 0 129.6707 39.801476"
   version="1.1"
   id="svg11512"
   inkscape:version="1.3.2 (091e20e, 2023-11-25, custom)"
   sodipodi:docname="Flextool_original.svg"
   xml:space="preserve"
   xmlns:inkscape="http://www.inkscape.org/namespaces/inkscape"
   xmlns:sodipodi="http://sodipodi.sourceforge.net/DTD/sodipodi-0.dtd"
   xmlns="http://www.w3.org/2000/svg"
   xmlns:svg="http://www.w3.org/2000/svg"><sodipodi:namedview
     id="namedview11514"
     pagecolor="#ffffff"
     bordercolor="#666666"
     borderopacity="1.0"
     inkscape:showpageshadow="2"
     inkscape:pageopacity="0.0"
     inkscape:pagecheckerboard="0"
     inkscape:deskcolor="#d1d1d1"
     inkscape:document-units="mm"
     showgrid="false"
     inkscape:zoom="1.0255231"
     inkscape:cx="432.46222"
     inkscape:cy="75.571189"
     inkscape:window-width="1920"
     inkscape:window-height="1001"
     inkscape:window-x="-9"
     inkscape:window-y="-9"
     inkscape:window-maximized="1"
     inkscape:current-layer="layer1" /><defs
     id="defs11509"><linearGradient
       id="SVGID_1_"
       gradientUnits="userSpaceOnUse"
       x1="0.0009765625"
       y1="480"
       x2="1.001"
       y2="480"
       gradientTransform="matrix(119.1088,14.6247,14.6247,-119.1088,-7007.3853,57236.911)">
		<stop
   offset="0"
   style="stop-color:#74B106"
   id="stop11" />
		<stop
   offset="1"
   style="stop-color:#4C6003"
   id="stop13" />
	</linearGradient><linearGradient
       id="SVGID_4_"
       gradientUnits="userSpaceOnUse"
       x1="0.071077168"
       y1="479.93787"
       x2="1.0513145"
       y2="480.08722"
       gradientTransform="matrix(119.1088,14.6247,14.6247,-119.1088,-6757.8369,57409.395)">
		<stop
   offset="0"
   style="stop-color:#4A4A06"
   id="stop34" />
		<stop
   offset="1"
   style="stop-color:#1a1a1a;stop-opacity:1"
   id="stop36" />
	</linearGradient></defs><g
     inkscape:label="Layer 1"
     inkscape:groupmode="layer"
     id="layer1"
     transform="translate(-6.9513358,-51.845547)"><g
       aria-label="F"
       transform="scale(1.152774,0.86747273)"
       id="text400"
       style="font-size:33.765px;line-height:1.25;font-family:'NHL Ottawa';-inkscape-font-specification:'NHL Ottawa';stroke-width:2.53237" /><g
       id="g7609"
       inkscape:export-filename="flextool.png"
       inkscape:export-xdpi="300"
       inkscape:export-ydpi="300"><g
         aria-label="IRENA"
         transform="scale(0.98828575,1.0118531)"
         id="text290"
         style="font-size:15.4249px;line-height:1.25;font-family:'NHL Ottawa';-inkscape-font-specification:'NHL Ottawa';stroke-width:1.15687"><path
           d="M 7.0798803,62.652641 H 9.3781904 V 51.238215 H 7.0798803 Z"
           style="font-family:'ITC Avant Garde Gothic Std';-inkscape-font-specification:'ITC Avant Garde Gothic Std'"
           id="path11341" /><path
           d="m 11.475978,62.652641 h 2.298311 v -9.393764 h 1.341966 c 0.647846,0 1.203142,0.09255 1.619614,0.354773 0.509022,0.323923 0.84837,0.956344 0.84837,1.650464 0,0.694121 -0.277648,1.295692 -0.72497,1.665889 -0.478172,0.370198 -1.295692,0.416473 -2.051512,0.416473 h -0.447322 l 3.069555,5.306165 h 2.406284 L 17.291166,58.426219 C 18.031561,58.24112 18.679407,57.917197 19.173004,57.192227 19.558626,56.63693 19.79,55.896535 19.79,55.06359 c 0,-1.264841 -0.509022,-2.421709 -1.449941,-3.100404 -0.616996,-0.447323 -1.635039,-0.724971 -3.408903,-0.724971 h -3.455178 z"
           style="font-family:'ITC Avant Garde Gothic Std';-inkscape-font-specification:'ITC Avant Garde Gothic Std'"
           id="path11343" /><path
           d="m 21.209094,62.652641 h 6.401333 v -2.020662 h -4.103023 v -2.761057 h 4.025899 V 55.85026 h -4.025899 v -2.591383 h 4.103023 v -2.020662 h -6.401333 z"
           style="font-family:'ITC Avant Garde Gothic Std';-inkscape-font-specification:'ITC Avant Garde Gothic Std'"
           id="path11345" /><path
           d="m 31.482092,51.238215 h -2.051511 v 11.414426 h 2.20576 l -0.04627,-7.897549 5.259891,7.897549 h 2.036086 V 51.238215 h -2.20576 l 0.04627,7.912974 z"
           style="font-family:'ITC Avant Garde Gothic Std';-inkscape-font-specification:'ITC Avant Garde Gothic Std'"
           id="path11347" /><path
           d="m 43.420962,60.416031 h 4.50407 l 0.832945,2.23661 h 2.514259 L 46.75274,51.238215 h -2.020662 l -4.62747,11.414426 h 2.498834 z m 3.887074,-1.835563 h -3.285503 l 1.619614,-4.62747 z"
           style="font-family:'ITC Avant Garde Gothic Std';-inkscape-font-specification:'ITC Avant Garde Gothic Std'"
           id="path11349" /></g><path
         d="m 6.0300942,104.78365 h 5.0309848 v -9.847807 h 8.273453 V 89.986871 H 11.061079 V 84.5888 h 9.465137 V 79.482099 H 6.0300942 Z"
         style="font-size:33.765px;line-height:1.25;font-family:'ITC Avant Garde Gothic Std';-inkscape-font-specification:'ITC Avant Garde Gothic Std';fill:#029ff0;fill-opacity:1;stroke-width:2.53237"
         id="path402"
         transform="scale(1.152774,0.86747273)"
         sodipodi:nodetypes="ccccccccccc" /><path
         id="rect554"
         style="fill:#029ff0;stroke-width:0.267209"
         d="m 27.182428,69.096283 h 4.925676 v 21.891891 h -4.925676 z" /><path
         id="rect554-4"
         style="fill:#029ff0;stroke-width:0.267209"
         d="m 131.69635,68.775566 h 4.92568 v 21.891892 h -4.92568 z" /><path
         style="fill:#029ff0;fill-opacity:1;stroke:none;stroke-width:0.264583px;stroke-linecap:butt;stroke-linejoin:miter;stroke-opacity:1"
         d="m 53.543919,74.067566 h 5.062498 l 3.192568,4.925676 3.238177,-4.925676 h 5.153716 l -5.974662,8.255069 5.974662,8.66554 h -5.016892 l -3.42061,-5.108109 -3.329389,5.108109 h -5.199325 l 6.020268,-8.483108 z"
         id="path4012" /><path
         style="fill:#029ff0;fill-opacity:1;stroke:none;stroke-width:0.264583px;stroke-linecap:butt;stroke-linejoin:miter;stroke-opacity:1"
         d="M 78.719594,90.851349 V 73.292228 h -6.750002 v -4.287163 h 18.243246 v 4.423987 h -6.704394 v 17.467907 z"
         id="path4740"
         sodipodi:nodetypes="ccccccccc" /><path
         id="path4796"
         style="fill:#029ff0;fill-opacity:1;stroke:none;stroke-width:0.322987;stroke-opacity:1"
         d="m 104.91453,68.478892 c 0.004,0.05367 0.007,0.107436 0.007,0.16123 -9e-5,1.39799 -1.31725,2.531215 -2.94194,2.531112 -1.62218,-3.86e-4 -2.937835,-1.130636 -2.940904,-2.526461 -1.090546,0.313209 -2.130277,0.781906 -3.08715,1.391646 0.978038,0.990986 0.843892,2.715484 -0.30024,3.859713 -1.082758,1.078091 -2.694923,1.262883 -3.710368,0.425297 -0.534554,0.974304 -0.928944,2.019167 -1.171505,3.103686 1.338685,0.09012 2.38462,1.377878 2.384868,2.936255 -8.68e-4,1.475502 -0.94214,2.721986 -2.2009,2.914551 0.297175,1.029372 0.733015,2.013532 1.295529,2.925402 0.87921,-0.76824 2.287616,-0.80438 3.423046,-0.0879 1.372421,0.86937 1.878634,2.53145 1.130681,3.71244 -0.10148,0.15567 -0.222616,0.29794 -0.361218,0.42426 0.963464,0.55101 1.999777,0.96348 3.078365,1.22525 0.0237,-1.38223 1.331776,-2.49246 2.938326,-2.49391 1.57104,-1.6e-4 2.86498,1.06193 2.93883,2.41226 1.06863,-0.29127 2.09099,-0.73138 3.03703,-1.30742 -0.11044,-0.0939 -0.21089,-0.19797 -0.30024,-0.31109 -0.7836,-1.01889 -0.5556,-2.55891 0.5302,-3.58117 0.002,0.003 0.003,0.005 0.005,0.008 0.90551,-0.86829 2.44021,-0.87809 3.61373,-0.0227 1.31251,0.95775 1.70848,2.64985 0.88419,3.77909 -0.0863,0.11548 -0.1841,0.22203 -0.29198,0.31885 0.96115,0.55046 1.99508,0.96325 3.07113,1.22576 0.0376,-1.35182 1.30274,-2.44833 2.87321,-2.49029 1.60601,-0.0416 2.94326,1.03323 3.00396,2.41433 1.07117,-0.2906 2.09591,-0.73078 3.04425,-1.30742 -0.14193,-0.12255 -0.26646,-0.26155 -0.37207,-0.41444 -0.77935,-1.16051 -0.31819,-2.83552 1.03043,-3.74138 1.1158,-0.74672 2.52458,-0.7485 3.42408,-0.004 0.53786,-0.92662 0.94751,-1.92202 1.21698,-2.958987 -1.26347,-0.158749 -2.23801,-1.379662 -2.27841,-2.854606 -0.0415,-1.557822 0.96949,-2.872801 2.30528,-2.998784 -0.27155,-1.077624 -0.6937,-2.112027 -1.25418,-3.071647 -0.99262,0.864513 -2.60943,0.723111 -3.72071,-0.325561 -1.1744,-1.11314 -1.35471,-2.833043 -0.40359,-3.849895 -0.97288,-0.583863 -2.02477,-1.024591 -3.12332,-1.308447 0.0344,1.395406 -1.25059,2.560612 -2.87218,2.604492 -1.6241,0.04367 -2.971,-1.054046 -3.0086,-2.45153 -10e-4,-0.05379 1e-4,-0.10747 0.003,-0.16123 h -5.2e-4 c -1.03727,0.265016 -3.27421,0.207641 -2.90861,1.171531 0.36053,0.950494 1.20545,3.830429 -2.92364,4.926152 -2.21301,-1.736327 -3.34253,-2.21153 -2.12819,-5.104107 0.40463,-0.963818 -1.90946,-0.863102 -2.93812,-1.097962 z"
         sodipodi:nodetypes="ccccccccccccccccccccccccccccccccccccccccccscscc" /><path
         id="path4984"
         style="fill:#ffffff;fill-opacity:1;stroke:#ffffff;stroke-width:0.264999;stroke-opacity:1"
         d="m 102.11883,74.129193 c -3.303739,1.52e-4 -5.98191,2.678324 -5.982062,5.982063 -1.34e-4,3.303941 2.678121,5.982427 5.982062,5.982577 2.91776,-0.001 5.40895,-2.10733 5.89577,-4.984188 0.3317,1.639251 1.26403,3.078128 2.34404,4.467948 l 1.35444,0.32246 c -1.43575,-1.53237 -2.13952,-3.003647 -2.54765,-4.450377 -0.41619,-2.508928 -0.92077,-3.617946 -1.99761,-4.743128 -1.10904,-1.666921 -3.04684,-2.577317 -5.04899,-2.577355 z"
         sodipodi:nodetypes="csccccccc" /><path
         id="path4984-9"
         style="fill:#ffffff;fill-opacity:1;stroke:#ffffff;stroke-width:0.264999;stroke-opacity:1"
         d="m 118.87802,86.161373 c 3.30374,-1.5e-4 5.98191,-2.678321 5.98206,-5.98206 1.3e-4,-3.303941 -2.67812,-5.982429 -5.98206,-5.982581 -2.91776,0.0013 -5.40895,2.107333 -5.89577,4.984192 -0.3317,-1.639251 -1.40085,-3.397389 -2.48086,-4.787201 l -1.89034,-0.99518 c 1.43575,1.532364 2.81224,3.99562 3.22037,5.44235 0.41619,2.508928 0.92077,3.617946 1.99761,4.74313 1.10904,1.66692 3.04684,2.57731 5.04899,2.57735 z"
         sodipodi:nodetypes="csccccccc" /><path
         id="path5989"
         style="fill:#016aa2;stroke-width:0.264999"
         d="m 104.04869,80.09198 a 1.8556656,1.8556656 0 0 1 -1.85567,1.855666 1.8556656,1.8556656 0 0 1 -1.85566,-1.855666 1.8556656,1.8556656 0 0 1 1.85566,-1.855666 1.8556656,1.8556656 0 0 1 1.85567,1.855666 z" /><path
         id="path5989-1"
         style="fill:#016aa2;stroke-width:0.264999"
         d="m 120.61918,80.179054 a 1.8556656,1.8556656 0 0 1 -1.85567,1.855666 1.8556656,1.8556656 0 0 1 -1.85566,-1.855666 1.8556656,1.8556656 0 0 1 1.85566,-1.855665 1.8556656,1.8556656 0 0 1 1.85567,1.855665 z" /><g
         aria-label="e"
         id="text7521"
         style="font-size:33.6161px;line-height:1.25;font-family:'NHL Ottawa';-inkscape-font-specification:'NHL Ottawa';fill:#029ff0;fill-opacity:1;stroke-width:2.52121"><path
           d="m 48.590697,85.77628 2.710964,2.156242 c -1.474444,2.475272 -4.419178,3.690336 -7.004072,3.714499 -2.549659,0 -4.574066,-0.782406 -6.073221,-2.347218 -1.488213,-1.575755 -2.528772,-3.780717 -2.528772,-6.614887 0,-2.932655 0.777853,-5.208745 2.287951,-6.82827 1.510098,-1.619526 3.468849,-2.429289 5.876252,-2.429289 2.330804,0 4.234841,0.793349 5.712111,2.380046 1.47727,1.586698 2.489554,3.819017 2.489554,6.696958 0,0.175084 -0.0055,1.349872 -0.01641,1.700039 L 40.3221,84.181596 c 0.05938,0.898476 0.988892,3.455765 3.991903,3.325832 2.107259,-0.0099 2.875478,-0.388019 4.276694,-1.731148 z m -8.081652,-4.753702 h 7.133906 c -0.632801,-1.653141 -1.532637,-3.179764 -3.750324,-3.204783 -2.276323,0.0082 -3.312915,2.143889 -3.383582,3.204783 z"
           style="font-family:Arial;-inkscape-font-specification:Arial;fill:#029ff0;fill-opacity:1"
           id="path7523"
           sodipodi:nodetypes="ccccssssscccccccc" /></g></g></g></svg>
