<?xml version="1.0" encoding="UTF-8" standalone="no"?>
<!-- Created with Inkscape (http://www.inkscape.org/) -->

<svg
   width="210mm"
   height="297mm"
   viewBox="0 0 210 297"
   version="1.1"
   id="svg11512"
   inkscape:version="1.2.1 (9c6d41e410, 2022-07-14)"
   sodipodi:docname="Logo.svg"
   xml:space="preserve"
   xmlns:inkscape="http://www.inkscape.org/namespaces/inkscape"
   xmlns:sodipodi="http://sodipodi.sourceforge.net/DTD/sodipodi-0.dtd"
   xmlns="http://www.w3.org/2000/svg"
   xmlns:svg="http://www.w3.org/2000/svg"><sodipodi:namedview
     id="namedview11514"
     pagecolor="#ffffff"
     bordercolor="#666666"
     borderopacity="1.0"
     inkscape:showpageshadow="2"
     inkscape:pageopacity="0.0"
     inkscape:pagecheckerboard="0"
     inkscape:deskcolor="#d1d1d1"
     inkscape:document-units="mm"
     showgrid="false"
     inkscape:zoom="1.0255231"
     inkscape:cx="458.30269"
     inkscape:cy="271.08117"
     inkscape:window-width="2560"
     inkscape:window-height="1377"
     inkscape:window-x="1912"
     inkscape:window-y="-8"
     inkscape:window-maximized="1"
     inkscape:current-layer="layer1" /><defs
     id="defs11509"><linearGradient
       id="SVGID_1_"
       gradientUnits="userSpaceOnUse"
       x1="0.0009765625"
       y1="480"
       x2="1.001"
       y2="480"
       gradientTransform="matrix(119.1088,14.6247,14.6247,-119.1088,-7007.3853,57236.911)">
		<stop
   offset="0"
   style="stop-color:#74B106"
   id="stop11" />
		<stop
   offset="1"
   style="stop-color:#4C6003"
   id="stop13" />
	</linearGradient><linearGradient
       id="SVGID_4_"
       gradientUnits="userSpaceOnUse"
       x1="0.071077168"
       y1="479.93787"
       x2="1.0513145"
       y2="480.08722"
       gradientTransform="matrix(119.1088,14.6247,14.6247,-119.1088,-6757.8369,57409.395)">
		<stop
   offset="0"
   style="stop-color:#4A4A06"
   id="stop34" />
		<stop
   offset="1"
   style="stop-color:#1a1a1a;stop-opacity:1"
   id="stop36" />
	</linearGradient></defs><g
     inkscape:label="Layer 1"
     inkscape:groupmode="layer"
     id="layer1"><g
       aria-label="F"
       transform="scale(1.152774,0.86747273)"
       id="text400"
       style="font-size:33.765px;line-height:1.25;font-family:'NHL Ottawa';-inkscape-font-specification:'NHL Ottawa';stroke-width:2.53237" /><g
       id="g7609"
       inkscape:export-filename="flextool.png"
       inkscape:export-xdpi="300"
       inkscape:export-ydpi="300"><g
         aria-label="IRENA"
         transform="scale(0.98828575,1.0118531)"
         id="text290"
         style="font-size:15.4249px;line-height:1.25;font-family:'NHL Ottawa';-inkscape-font-specification:'NHL Ottawa';stroke-width:1.15687"><path
           d="M 7.0798803,62.652641 H 9.3781904 V 51.238215 H 7.0798803 Z"
           style="font-family:'ITC Avant Garde Gothic Std';-inkscape-font-specification:'ITC Avant Garde Gothic Std'"
           id="path11341" /><path
           d="m 11.475978,62.652641 h 2.298311 v -9.393764 h 1.341966 c 0.647846,0 1.203142,0.09255 1.619614,0.354773 0.509022,0.323923 0.84837,0.956344 0.84837,1.650464 0,0.694121 -0.277648,1.295692 -0.72497,1.665889 -0.478172,0.370198 -1.295692,0.416473 -2.051512,0.416473 h -0.447322 l 3.069555,5.306165 h 2.406284 L 17.291166,58.426219 C 18.031561,58.24112 18.679407,57.917197 19.173004,57.192227 19.558626,56.63693 19.79,55.896535 19.79,55.06359 c 0,-1.264841 -0.509022,-2.421709 -1.449941,-3.100404 -0.616996,-0.447323 -1.635039,-0.724971 -3.408903,-0.724971 h -3.455178 z"
           style="font-family:'ITC Avant Garde Gothic Std';-inkscape-font-specification:'ITC Avant Garde Gothic Std'"
           id="path11343" /><path
           d="m 21.209094,62.652641 h 6.401333 v -2.020662 h -4.103023 v -2.761057 h 4.025899 V 55.85026 h -4.025899 v -2.591383 h 4.103023 v -2.020662 h -6.401333 z"
           style="font-family:'ITC Avant Garde Gothic Std';-inkscape-font-specification:'ITC Avant Garde Gothic Std'"
           id="path11345" /><path
           d="m 31.482092,51.238215 h -2.051511 v 11.414426 h 2.20576 l -0.04627,-7.897549 5.259891,7.897549 h 2.036086 V 51.238215 h -2.20576 l 0.04627,7.912974 z"
           style="font-family:'ITC Avant Garde Gothic Std';-inkscape-font-specification:'ITC Avant Garde Gothic Std'"
           id="path11347" /><path
           d="m 43.420962,60.416031 h 4.50407 l 0.832945,2.23661 h 2.514259 L 46.75274,51.238215 h -2.020662 l -4.62747,11.414426 h 2.498834 z m 3.887074,-1.835563 h -3.285503 l 1.619614,-4.62747 z"
           style="font-family:'ITC Avant Garde Gothic Std';-inkscape-font-specification:'ITC Avant Garde Gothic Std'"
           id="path11349" /></g><path
         d="m 6.0300942,104.78365 h 5.0309848 v -9.847807 h 8.273453 V 89.986871 H 11.061079 V 84.5888 h 9.465137 V 79.482099 H 6.0300942 Z"
         style="font-size:33.765px;line-height:1.25;font-family:'ITC Avant Garde Gothic Std';-inkscape-font-specification:'ITC Avant Garde Gothic Std';stroke-width:2.53237;fill:#029ff0;fill-opacity:1"
         id="path402"
         transform="scale(1.152774,0.86747273)"
         sodipodi:nodetypes="ccccccccccc" /><path
         id="rect554"
         style="fill:#029ff0;stroke-width:0.267209"
         d="m 27.182428,69.096283 h 4.925676 v 21.891891 h -4.925676 z" /><path
         id="rect554-4"
         style="fill:#029ff0;stroke-width:0.267209"
         d="m 131.69635,68.775566 h 4.92568 v 21.891892 h -4.92568 z" /><path
         style="fill:#029ff0;stroke:none;stroke-width:0.264583px;stroke-linecap:butt;stroke-linejoin:miter;stroke-opacity:1;fill-opacity:1"
         d="m 53.543919,74.067566 h 5.062498 l 3.192568,4.925676 3.238177,-4.925676 h 5.153716 l -5.974662,8.255069 5.974662,8.66554 h -5.016892 l -3.42061,-5.108109 -3.329389,5.108109 h -5.199325 l 6.020268,-8.483108 z"
         id="path4012" /><path
         style="fill:#029ff0;stroke:none;stroke-width:0.264583px;stroke-linecap:butt;stroke-linejoin:miter;stroke-opacity:1;fill-opacity:1"
         d="M 78.719594,90.851349 V 73.292228 h -6.750002 v -4.287163 h 18.243246 v 4.423987 h -6.704394 v 17.467907 z"
         id="path4740"
         sodipodi:nodetypes="ccccccccc" /><path
         id="path4796"
         style="fill:#029ff0;fill-opacity:1;stroke:none;stroke-width:0.322987;stroke-opacity:1"
         d="m 104.91453,68.478892 c 0.004,0.05367 0.007,0.107436 0.007,0.16123 -9e-5,1.39799 -1.31725,2.531215 -2.94194,2.531112 -1.62218,-3.86e-4 -2.937835,-1.130636 -2.940904,-2.526461 -1.090546,0.313209 -2.130277,0.781906 -3.08715,1.391646 0.978038,0.990986 0.843892,2.715484 -0.30024,3.859713 -1.082758,1.078091 -2.694923,1.262883 -3.710368,0.425297 -0.534554,0.974304 -0.928944,2.019167 -1.171505,3.103686 1.338685,0.09012 2.38462,1.377878 2.384868,2.936255 -8.68e-4,1.475502 -0.94214,2.721986 -2.2009,2.914551 0.297175,1.029372 0.733015,2.013532 1.295529,2.925402 0.87921,-0.76824 2.287616,-0.80438 3.423046,-0.0879 1.372421,0.86937 1.878634,2.53145 1.130681,3.71244 -0.10148,0.15567 -0.222616,0.29794 -0.361218,0.42426 0.963464,0.55101 1.999777,0.96348 3.078365,1.22525 0.0237,-1.38223 1.331776,-2.49246 2.938326,-2.49391 1.57104,-1.6e-4 2.86498,1.06193 2.93883,2.41226 1.06863,-0.29127 2.09099,-0.73138 3.03703,-1.30742 -0.11044,-0.0939 -0.21089,-0.19797 -0.30024,-0.31109 -0.7836,-1.01889 -0.5556,-2.55891 0.5302,-3.58117 0.002,0.003 0.003,0.005 0.005,0.008 0.90551,-0.86829 2.44021,-0.87809 3.61373,-0.0227 1.31251,0.95775 1.70848,2.64985 0.88419,3.77909 -0.0863,0.11548 -0.1841,0.22203 -0.29198,0.31885 0.96115,0.55046 1.99508,0.96325 3.07113,1.22576 0.0376,-1.35182 1.30274,-2.44833 2.87321,-2.49029 1.60601,-0.0416 2.94326,1.03323 3.00396,2.41433 1.07117,-0.2906 2.09591,-0.73078 3.04425,-1.30742 -0.14193,-0.12255 -0.26646,-0.26155 -0.37207,-0.41444 -0.77935,-1.16051 -0.31819,-2.83552 1.03043,-3.74138 1.1158,-0.74672 2.52458,-0.7485 3.42408,-0.004 0.53786,-0.92662 0.94751,-1.92202 1.21698,-2.958987 -1.26347,-0.158749 -2.23801,-1.379662 -2.27841,-2.854606 -0.0415,-1.557822 0.96949,-2.872801 2.30528,-2.998784 -0.27155,-1.077624 -0.6937,-2.112027 -1.25418,-3.071647 -0.99262,0.864513 -2.60943,0.723111 -3.72071,-0.325561 -1.1744,-1.11314 -1.35471,-2.833043 -0.40359,-3.849895 -0.97288,-0.583863 -2.02477,-1.024591 -3.12332,-1.308447 0.0344,1.395406 -1.25059,2.560612 -2.87218,2.604492 -1.6241,0.04367 -2.971,-1.054046 -3.0086,-2.45153 -10e-4,-0.05379 1e-4,-0.10747 0.003,-0.16123 h -5.2e-4 c -1.03727,0.265016 -3.27421,0.207641 -2.90861,1.171531 0.36053,0.950494 1.20545,3.830429 -2.92364,4.926152 -2.21301,-1.736327 -3.34253,-2.21153 -2.12819,-5.104107 0.40463,-0.963818 -1.90946,-0.863102 -2.93812,-1.097962 z"
         sodipodi:nodetypes="ccccccccccccccccccccccccccccccccccccccccccscscc" /><path
         id="path4984"
         style="fill:#ffffff;fill-opacity:1;stroke:#ffffff;stroke-width:0.264999;stroke-opacity:1"
         d="m 102.11883,74.129193 c -3.303739,1.52e-4 -5.98191,2.678324 -5.982062,5.982063 -1.34e-4,3.303941 2.678121,5.982427 5.982062,5.982577 2.91776,-0.001 5.40895,-2.10733 5.89577,-4.984188 0.3317,1.639251 1.26403,3.078128 2.34404,4.467948 l 1.35444,0.32246 c -1.43575,-1.53237 -2.13952,-3.003647 -2.54765,-4.450377 -0.41619,-2.508928 -0.92077,-3.617946 -1.99761,-4.743128 -1.10904,-1.666921 -3.04684,-2.577317 -5.04899,-2.577355 z"
         sodipodi:nodetypes="csccccccc" /><path
         id="path4984-9"
         style="fill:#ffffff;fill-opacity:1;stroke:#ffffff;stroke-width:0.264999;stroke-opacity:1"
         d="m 118.87802,86.161373 c 3.30374,-1.5e-4 5.98191,-2.678321 5.98206,-5.98206 1.3e-4,-3.303941 -2.67812,-5.982429 -5.98206,-5.982581 -2.91776,0.0013 -5.40895,2.107333 -5.89577,4.984192 -0.3317,-1.639251 -1.40085,-3.397389 -2.48086,-4.787201 l -1.89034,-0.99518 c 1.43575,1.532364 2.81224,3.99562 3.22037,5.44235 0.41619,2.508928 0.92077,3.617946 1.99761,4.74313 1.10904,1.66692 3.04684,2.57731 5.04899,2.57735 z"
         sodipodi:nodetypes="csccccccc" /><path
         id="path5989"
         style="fill:#016aa2;stroke-width:0.264999"
         d="m 104.04869,80.09198 a 1.8556656,1.8556656 0 0 1 -1.85567,1.855666 1.8556656,1.8556656 0 0 1 -1.85566,-1.855666 1.8556656,1.8556656 0 0 1 1.85566,-1.855666 1.8556656,1.8556656 0 0 1 1.85567,1.855666 z" /><path
         id="path5989-1"
         style="fill:#016aa2;stroke-width:0.264999"
         d="m 120.61918,80.179054 a 1.8556656,1.8556656 0 0 1 -1.85567,1.855666 1.8556656,1.8556656 0 0 1 -1.85566,-1.855666 1.8556656,1.8556656 0 0 1 1.85566,-1.855665 1.8556656,1.8556656 0 0 1 1.85567,1.855665 z" /><g
         aria-label="e"
         id="text7521"
         style="font-size:33.6161px;line-height:1.25;font-family:'NHL Ottawa';-inkscape-font-specification:'NHL Ottawa';stroke-width:2.52121;fill:#029ff0;fill-opacity:1"><path
           d="m 48.590697,85.77628 2.710964,2.156242 c -1.474444,2.475272 -4.419178,3.690336 -7.004072,3.714499 -2.549659,0 -4.574066,-0.782406 -6.073221,-2.347218 -1.488213,-1.575755 -2.528772,-3.780717 -2.528772,-6.614887 0,-2.932655 0.777853,-5.208745 2.287951,-6.82827 1.510098,-1.619526 3.468849,-2.429289 5.876252,-2.429289 2.330804,0 4.234841,0.793349 5.712111,2.380046 1.47727,1.586698 2.489554,3.819017 2.489554,6.696958 0,0.175084 -0.0055,1.349872 -0.01641,1.700039 L 40.3221,84.181596 c 0.05938,0.898476 0.988892,3.455765 3.991903,3.325832 2.107259,-0.0099 2.875478,-0.388019 4.276694,-1.731148 z m -8.081652,-4.753702 h 7.133906 c -0.632801,-1.653141 -1.532637,-3.179764 -3.750324,-3.204783 -2.276323,0.0082 -3.312915,2.143889 -3.383582,3.204783 z"
           style="font-family:Arial;-inkscape-font-specification:Arial;fill:#029ff0;fill-opacity:1"
           id="path7523"
           sodipodi:nodetypes="ccccssssscccccccc" /></g></g><g
       id="g10360"
       transform="matrix(0.28222222,0,0,0.28222222,94.023395,122.27164)"
       inkscape:export-filename="opensource.png"
       inkscape:export-xdpi="300"
       inkscape:export-ydpi="300"><path
         d="m 128.2536,76.6575 3.753,-2.592 -3.572,-2.853 3.501,-2.943 -0.385,-0.25 0.007,-0.002 -3.456,-2.241 3.194,-3.276 -4.059,-2.115 2.862,-3.564 -4.239,-1.71 2.511,-3.825 -4.383,-1.296 2.124,-4.041 -2.032,-0.394 -2.459,-0.479 1.719,-4.23 -4.545,-0.432 1.306,-4.374 -4.572,0.009 0.873,-4.482 -4.545,0.459 0.44,-4.554 -4.481,0.891 v -4.572 l -4.383,1.323 -0.433,-4.545 -4.229,1.728 -0.883,-4.482 -4.041,2.133 -1.305,-4.374 -3.815,2.511 -1.729,-4.23 -3.555,2.871 -2.124,-4.041 -3.258,3.195 -2.512,-3.816 -2.934,3.501 -2.862,-3.564 -2.583,3.771 -3.195,-3.276 -2.214,4.005 -3.492,-2.952 -1.817,4.203 -3.753,-2.601 -1.404,4.356 -3.996,-2.223 -0.972,4.464 -4.194,-1.818 -0.531,4.536 -4.347,-1.413 -0.099,4.572 -4.464,-0.99 0.342,4.563 -4.536,-0.549 0.783,4.5 -4.572,-0.108 1.215,4.401 -4.554,0.342 1.629,4.266 -4.5,0.765 2.034,4.095 -4.41,1.206 2.421,3.87 -4.275,1.62 2.79,3.627 -4.095,2.025 3.114,3.339 -3.879,2.412 3.429,3.023 -3.627,2.772 2.651,1.916 -0.005,0.001 1.053,0.756 -3.339,3.114 3.942,2.312 -3.024,3.42 4.149,1.908 -2.691,3.699 4.32,1.512 -2.313,3.934 4.437,1.08 -0.603,1.296 0.001,-0.001 -1.325,2.854 4.527,0.648 -1.521,4.311 4.563,0.207 -1.089,4.438 4.563,-0.234 -0.657,4.527 4.518,-0.676 -0.216,4.563 4.437,-1.107 0.216,4.563 4.311,-1.521 0.666,4.519 4.131,-1.936 1.098,4.438 3.933,-2.331 1.521,4.311 3.681,-2.699 1.935,4.148 3.411,-3.042 2.313,3.942 3.105,-3.357 2.691,3.699 2.763,-3.645 3.033,3.42 2.394,-3.889 3.348,3.114 2.017,-4.104 3.627,2.771 1.611,-4.275 3.888,2.412 1.188,-4.419 4.096,2.034 0.756,-4.518 4.274,1.629 0.315,-4.563 4.41,1.197 -0.117,-4.563 4.5,0.766 -0.558,-4.536 4.554,0.324 -0.999,-4.455 4.562,-0.108 -1.422,-4.347 4.536,-0.549 -1.836,-4.194 4.464,-0.99 -2.231,-3.978 4.347,-1.413 -2.61,-3.762 4.194,-1.827 -2.961,-3.483 3.996,-2.223 z m -85.266,-9.531 c 1.854,-11.025 9.927,-20.511 21.438,-23.598 2.551,-0.685 5.115,-1.012 7.636,-1.012 8.846,0 17.181,4.022 22.721,10.732 z m 36.693,33.328 c -2.552,0.684 -5.117,1.011 -7.64,1.011 -9.093,0 -17.646,-4.243 -23.184,-11.288 l 26.185,-7.017 26.186,-7.016 c -1.621,11.331 -9.802,21.159 -21.547,24.31 z"
         id="path8"
         style="fill:#a8a8a8;filter:url(#AI_GaussianBlur_4)" /><path
         d="m 101.2266,76.1445 c -1.62,11.331 -9.802,21.159 -21.547,24.31 -2.552,0.684 -5.117,1.011 -7.64,1.011 -9.093,0 -17.646,-4.243 -23.184,-11.288 l -3.151,0.845 -25.126,6.731 -1.325,2.854 4.527,0.648 -1.521,4.311 4.563,0.207 -1.089,4.438 4.563,-0.234 -0.657,4.527 4.518,-0.676 -0.216,4.563 4.437,-1.107 0.216,4.563 4.311,-1.521 0.666,4.519 4.131,-1.936 1.098,4.438 3.933,-2.331 1.521,4.311 3.681,-2.699 1.935,4.148 3.411,-3.042 2.313,3.942 3.105,-3.357 2.691,3.699 2.763,-3.645 3.033,3.42 2.394,-3.889 3.348,3.114 2.017,-4.104 3.627,2.771 1.611,-4.275 3.888,2.412 1.188,-4.419 4.096,2.034 0.756,-4.518 4.274,1.629 0.315,-4.563 4.41,1.197 -0.117,-4.563 4.5,0.766 -0.558,-4.536 4.554,0.324 -0.999,-4.455 4.562,-0.108 -1.422,-4.347 4.536,-0.549 -1.836,-4.194 4.464,-0.99 -2.231,-3.978 4.347,-1.413 -2.61,-3.762 4.194,-1.827 -2.961,-3.483 3.996,-2.223 -3.276,-3.187 3.753,-2.592 -3.572,-2.853 3.501,-2.943 -0.385,-0.25 m 0,0 -27.174,7.279 m -34.623,-63.297 -2.583,3.771 -3.195,-3.276 -2.214,4.005 -3.492,-2.952 -1.818,4.203 -3.753,-2.601 -1.404,4.356 -3.996,-2.223 -0.972,4.464 -4.194,-1.818 -0.531,4.536 -4.347,-1.413 -0.099,4.572 -4.464,-0.99 0.342,4.563 -4.536,-0.549 0.783,4.5 -4.572,-0.108 1.215,4.401 -4.554,0.342 1.629,4.266 -4.5,0.765 2.034,4.095 -4.41,1.206 2.421,3.87 -4.275,1.62 2.79,3.627 -4.095,2.025 3.114,3.339 -3.879,2.412 3.429,3.023 -3.627,2.772 2.651,1.916 25.141,-6.74 3.195,-0.856 c 1.854,-11.024 9.927,-20.51 21.438,-23.597 2.551,-0.685 5.115,-1.012 7.636,-1.012 8.846,0 17.181,4.022 22.721,10.732 l 3.195,-0.855 25.767,-6.903 0.335,0.065 -2.459,-0.479 1.719,-4.23 -4.545,-0.432 1.306,-4.374 -4.572,0.009 0.873,-4.482 -4.545,0.459 0.44,-4.554 -4.481,0.891 v -4.572 l -4.383,1.323 -0.433,-4.545 -4.229,1.728 -0.883,-4.482 -4.041,2.133 -1.305,-4.374 -3.815,2.511 -1.729,-4.23 -3.555,2.871 -2.124,-4.041 -3.258,3.195 -2.512,-3.816 -2.934,3.501 -2.861,-3.563"
         id="path15"
         style="fill:url(#SVGID_1_)" /><circle
         cx="72.049591"
         cy="71.990501"
         r="33.594002"
         id="circle29"
         style="opacity:0.5;fill:none;stroke:#ffffff;stroke-width:0.5;stroke-dasharray:2" /><circle
         cx="72.050598"
         cy="71.990501"
         r="51.987999"
         id="circle31"
         style="opacity:0.5;fill:none;stroke:#ffffff;stroke-width:0.5;stroke-dasharray:2" /><polyline
         points="373.293,217.974 347.526,224.877 318.434,232.671 292.536,239.61 292.536,239.61    289.341,240.465 264.2,247.205 265.248,247.962 261.909,251.076 265.851,253.389 262.827,256.809 266.976,258.717 264.285,262.416    268.605,263.928 266.292,267.861 270.729,268.941 270.127,270.236 295.254,263.505 298.405,262.66 298.404,262.659 324.59,255.644    353.925,247.782 381.099,240.503 377.649,238.26 380.844,234.984 376.785,232.869 379.647,229.305 375.408,227.595 377.919,223.77    373.536,222.474 375.651,218.433 373.628,218.039 373.293,217.974  "
         id="polyline38"
         style="fill:url(#SVGID_4_)"
         transform="translate(-249.5484,-172.4835)" /><path
         d="m 30.8836,88.4875 -2.611,0.7 -0.75,-2.169 -2.457,0.659 -0.501,2.503 -2.28,0.611 2.459,-11.854 2.523,-0.676 z m -3.881,-2.991 -0.938,-2.732 -0.617,3.148 z"
         id="path42"
         style="fill:#ffffff" /><path
         d="m 38.9286,78.6825 c 0.127,2.416 -1.016,3.948 -3.424,4.594 l -1.008,0.27 0.202,3.92 -2.51,0.672 -0.57,-11.041 3.569,-0.957 c 1.995,-0.534 3.192,-0.059 3.59,1.426 0.084,0.313 0.134,0.686 0.151,1.116 z m -2.507,0.672 c -0.022,-0.455 -0.065,-0.803 -0.131,-1.047 -0.146,-0.545 -0.495,-0.744 -1.047,-0.596 l -1.035,0.277 0.208,3.992 0.9,-0.241 c 0.808,-0.215 1.177,-1.012 1.105,-2.385 z"
         id="path44"
         style="fill:#ffffff" /><path
         d="m 47.7696,76.3135 c 0.127,2.416 -1.015,3.947 -3.424,4.594 l -1.008,0.27 0.202,3.92 -2.509,0.672 -0.57,-11.041 3.568,-0.957 c 1.996,-0.535 3.193,-0.059 3.592,1.426 0.084,0.313 0.134,0.686 0.149,1.116 z m -2.506,0.672 c -0.022,-0.455 -0.065,-0.803 -0.131,-1.047 -0.146,-0.545 -0.495,-0.744 -1.048,-0.596 l -1.034,0.277 0.207,3.992 0.9,-0.241 c 0.81,-0.215 1.179,-1.012 1.106,-2.385 z"
         id="path46"
         style="fill:#ffffff" /><path
         d="m 56.7266,73.6725 c 0.063,1.213 -0.322,2.236 -1.154,3.07 l 2.204,4.539 -2.681,0.718 -1.645,-3.98 -0.175,0.046 -1.131,0.305 0.234,4.357 -2.506,0.672 -0.571,-11.041 3.69,-0.989 c 2.02,-0.542 3.216,-0.114 3.589,1.278 0.08,0.289 0.128,0.631 0.146,1.025 z m -2.507,0.672 c -0.026,-0.38 -0.066,-0.668 -0.119,-0.865 -0.137,-0.51 -0.489,-0.689 -1.058,-0.537 l -1.166,0.312 0.186,3.551 1.027,-0.275 c 0.812,-0.218 1.189,-0.948 1.13,-2.186 z"
         id="path48"
         style="fill:#ffffff" /><path
         d="m 67.3336,73.1235 c 0.079,1.596 -0.132,2.945 -0.632,4.05 -0.657,1.444 -1.787,2.382 -3.389,2.812 -2.262,0.605 -3.703,-0.245 -4.322,-2.556 -0.158,-0.591 -0.256,-1.255 -0.291,-1.992 -0.092,-1.593 0.119,-2.942 0.631,-4.05 0.657,-1.445 1.787,-2.381 3.389,-2.811 2.263,-0.606 3.703,0.245 4.321,2.555 0.159,0.592 0.257,1.256 0.293,1.992 z m -2.565,0.668 c -0.05,-1.018 -0.147,-1.807 -0.298,-2.363 -0.289,-1.08 -0.846,-1.51 -1.669,-1.289 -0.685,0.184 -1.134,0.691 -1.348,1.518 -0.177,0.684 -0.229,1.717 -0.157,3.104 0.051,1.068 0.146,1.869 0.29,2.403 0.282,1.056 0.83,1.476 1.644,1.257 0.672,-0.18 1.127,-0.688 1.363,-1.521 0.187,-0.698 0.247,-1.734 0.175,-3.109 z"
         id="path50"
         style="fill:#ffffff" /><path
         d="m 76.4486,65.0845 -2.458,11.852 -2.523,0.677 -3.617,-10.225 2.611,-0.699 2.318,6.916 0.084,-0.016 1.52,-7.951 z"
         id="path52"
         style="fill:#ffffff" /><path
         d="m 84.5826,62.9045 0.064,1.569 -4.351,1.166 0.171,2.959 3.018,-0.809 0.082,1.563 -3.02,0.809 0.176,3.387 4.346,-1.164 0.083,1.562 -6.857,1.838 -0.571,-11.042 z"
         id="path54"
         style="fill:#ffffff" /><path
         d="m 94.4206,65.8105 c 0.089,1.68 -0.104,3.025 -0.579,4.035 -0.646,1.354 -1.844,2.267 -3.595,2.735 l -3.517,0.943 -0.571,-11.042 3.272,-0.876 c 0.87,-0.233 1.592,-0.326 2.163,-0.28 1.285,0.104 2.13,0.915 2.537,2.435 0.15,0.557 0.247,1.24 0.29,2.05 z m -2.511,0.728 c -0.04,-0.797 -0.128,-1.458 -0.269,-1.98 -0.326,-1.218 -0.932,-1.709 -1.813,-1.473 l -1.096,0.294 0.427,7.909 1.095,-0.293 c 0.672,-0.181 1.134,-0.604 1.384,-1.268 0.25,-0.664 0.341,-1.727 0.272,-3.189 z"
         id="path56"
         style="fill:#ffffff" /><path
         d="m 105.6306,59.3395 0.055,1.276 -3.532,0.947 0.11,2.418 2.614,-0.701 0.068,1.274 -2.602,0.697 0.208,4.033 -2.045,0.548 -0.464,-8.996 z"
         id="path58"
         style="fill:#ffffff" /><path
         d="m 113.5236,61.7845 c 0.064,1.3 -0.107,2.399 -0.514,3.299 -0.536,1.177 -1.457,1.94 -2.762,2.29 -1.844,0.494 -3.018,-0.199 -3.521,-2.081 -0.129,-0.483 -0.207,-1.024 -0.236,-1.624 -0.074,-1.298 0.096,-2.398 0.514,-3.3 0.535,-1.178 1.456,-1.94 2.761,-2.29 1.843,-0.494 3.017,0.199 3.521,2.081 0.129,0.483 0.208,1.024 0.237,1.625 z m -2.088,0.544 c -0.041,-0.83 -0.122,-1.473 -0.243,-1.927 -0.235,-0.879 -0.688,-1.229 -1.36,-1.048 -0.557,0.149 -0.923,0.561 -1.098,1.236 -0.145,0.556 -0.188,1.398 -0.128,2.528 0.04,0.871 0.119,1.523 0.235,1.958 0.23,0.86 0.677,1.202 1.339,1.024 0.548,-0.147 0.919,-0.56 1.112,-1.241 0.152,-0.567 0.2,-1.41 0.143,-2.53 z"
         id="path60"
         style="fill:#ffffff" /><path
         d="m 121.0806,57.8895 c 0.052,0.99 -0.262,1.824 -0.941,2.503 l 1.797,3.698 -2.184,0.585 -1.34,-3.243 -0.143,0.038 -0.922,0.247 0.191,3.551 -2.042,0.548 -0.465,-8.996 3.007,-0.806 c 1.645,-0.44 2.619,-0.094 2.923,1.042 0.064,0.234 0.104,0.513 0.119,0.833 z m -2.042,0.547 c -0.022,-0.308 -0.055,-0.542 -0.098,-0.703 -0.111,-0.416 -0.399,-0.562 -0.862,-0.438 l -0.95,0.254 0.152,2.894 0.837,-0.224 c 0.661,-0.178 0.968,-0.772 0.921,-1.783 z"
         id="path62"
         style="fill:#ffffff" /><path
         d="m 28.0916,54.9615 -1.257,4.185 2.98,0.896 0.924,-3.078 1.14,0.342 -0.925,3.077 4.51,1.354 -0.557,1.856 -9.769,-2.933 1.813,-6.041 z"
         id="path68"
         style="fill:#d4ff17" /><path
         d="m 34.0256,49.9305 c 0.59,0.288 0.751,0.708 0.482,1.258 -0.225,0.458 -0.558,0.617 -1,0.476 -0.442,-0.141 -0.723,-0.089 -0.842,0.156 -0.189,0.387 0.063,0.927 0.759,1.62 l 4.367,2.137 -0.784,1.604 -5.513,-2.697 -0.307,0.626 -0.886,-0.434 1.039,-2.122 0.641,0.313 c -0.35,-0.625 -0.375,-1.243 -0.076,-1.854 0.288,-0.591 0.655,-0.967 1.1,-1.128 0.354,-0.13 0.694,-0.115 1.02,0.045 z"
         id="path70"
         style="fill:#d4ff17" /><path
         d="m 39.8776,44.7805 c 0.312,0.227 0.565,0.445 0.762,0.657 l -2.543,3.511 c 1.188,0.832 2.076,0.841 2.669,0.024 0.485,-0.671 0.537,-1.34 0.154,-2.01 l 1.001,-0.366 c 0.252,0.463 0.356,0.917 0.314,1.362 -0.044,0.542 -0.258,1.08 -0.644,1.613 -0.686,0.944 -1.5,1.432 -2.445,1.461 -0.815,0.024 -1.659,-0.279 -2.531,-0.911 -2.028,-1.47 -2.427,-3.053 -1.196,-4.751 1.211,-1.671 2.697,-1.868 4.459,-0.59 z m -1.027,1.503 -0.275,-0.199 c -0.514,-0.373 -0.922,-0.592 -1.225,-0.657 -0.462,-0.097 -0.847,0.066 -1.151,0.488 -0.525,0.725 -0.183,1.526 1.029,2.404 l 0.096,0.069 z"
         id="path72"
         style="fill:#d4ff17" /><path
         d="m 45.6486,39.1465 c 0.264,0.282 0.471,0.546 0.623,0.792 l -3.169,2.958 c 1.007,1.045 1.879,1.223 2.616,0.535 0.604,-0.565 0.783,-1.212 0.535,-1.943 l 1.053,-0.168 c 0.159,0.502 0.175,0.968 0.048,1.397 -0.146,0.523 -0.459,1.01 -0.939,1.458 -0.853,0.797 -1.747,1.119 -2.679,0.967 -0.807,-0.131 -1.576,-0.59 -2.311,-1.377 -1.71,-1.83 -1.8,-3.462 -0.267,-4.893 1.508,-1.407 3.005,-1.316 4.49,0.274 z m -1.295,1.279 -0.231,-0.248 c -0.434,-0.464 -0.793,-0.757 -1.077,-0.879 -0.435,-0.183 -0.842,-0.096 -1.224,0.259 -0.654,0.611 -0.471,1.462 0.551,2.556 l 0.081,0.088 z"
         id="path74"
         style="fill:#d4ff17" /><path
         d="m 58.1686,33.3975 c 0.277,0.797 0.277,1.568 0.003,2.312 -0.312,0.824 -0.97,1.475 -1.974,1.949 -1.352,0.64 -2.587,0.572 -3.706,-0.202 -0.87,-0.592 -1.624,-1.563 -2.265,-2.916 -0.61,-1.291 -0.865,-2.45 -0.761,-3.477 0.14,-1.319 0.866,-2.29 2.177,-2.91 1.096,-0.519 2.074,-0.611 2.934,-0.279 0.674,0.258 1.154,0.689 1.44,1.293 0.373,0.789 0.221,1.344 -0.454,1.664 -0.298,0.141 -0.577,0.167 -0.839,0.076 -0.262,-0.089 -0.461,-0.276 -0.597,-0.564 -0.048,-0.102 -0.098,-0.232 -0.147,-0.391 -0.05,-0.158 -0.093,-0.278 -0.133,-0.36 -0.159,-0.338 -0.417,-0.523 -0.771,-0.556 -0.269,-0.037 -0.556,0.018 -0.863,0.163 -0.727,0.345 -1.062,0.948 -1.004,1.812 0.046,0.654 0.341,1.556 0.885,2.703 1.177,2.489 2.427,3.421 3.748,2.796 1.056,-0.5 1.434,-1.449 1.134,-2.85 z"
         id="path76"
         style="fill:#d4ff17" /><path
         d="m 66.8216,34.1915 -0.646,0.152 c -0.803,0.191 -1.367,0.062 -1.693,-0.385 -0.308,0.714 -0.83,1.157 -1.565,1.332 -1.649,0.391 -2.681,-0.28 -3.09,-2.011 l -1.065,-4.5 1.736,-0.412 1.098,4.632 c 0.122,0.519 0.258,0.872 0.407,1.058 0.187,0.247 0.456,0.328 0.81,0.245 0.33,-0.079 0.614,-0.318 0.852,-0.718 0.238,-0.4 0.306,-0.814 0.203,-1.245 l -1.07,-4.516 1.737,-0.412 1.254,5.294 c 0.107,0.452 0.326,0.639 0.657,0.561 l 0.148,-0.035 z"
         id="path78"
         style="fill:#d4ff17" /><path
         d="m 72.4676,33.9375 -4.194,0.192 -0.045,-0.985 1.206,-0.055 -0.375,-8.22 -0.696,0.032 -0.045,-0.985 2.479,-0.113 0.42,9.206 1.205,-0.056 z"
         id="path80"
         style="fill:#d4ff17" /><path
         d="m 78.0156,28.2115 -1.373,-0.119 -0.379,4.404 c -0.043,0.485 0.105,0.743 0.445,0.771 l 0.523,0.045 -0.084,0.982 -1.033,-0.089 c -1.186,-0.103 -1.723,-0.809 -1.609,-2.118 l 0.359,-4.15 -1.371,-0.118 0.084,-0.982 1.373,0.119 0.16,-1.864 1.865,-0.846 -0.248,2.863 1.373,0.118 z"
         id="path82"
         style="fill:#d4ff17" /><path
         d="m 84.8476,36.0475 -0.643,-0.163 c -0.799,-0.204 -1.24,-0.579 -1.322,-1.126 -0.604,0.49 -1.271,0.642 -2.004,0.455 -1.645,-0.418 -2.246,-1.489 -1.807,-3.213 l 1.139,-4.481 1.73,0.439 -1.174,4.613 c -0.131,0.516 -0.174,0.892 -0.127,1.125 0.051,0.306 0.252,0.503 0.604,0.593 0.328,0.084 0.691,0.003 1.086,-0.241 0.396,-0.245 0.648,-0.581 0.758,-1.009 l 1.145,-4.498 1.729,0.44 -1.34,5.272 c -0.115,0.45 -0.008,0.717 0.322,0.802 l 0.148,0.037 z"
         id="path84"
         style="fill:#d4ff17" /><path
         d="m 93.4416,33.5825 c -0.279,0.597 -0.695,0.764 -1.25,0.505 -0.461,-0.216 -0.627,-0.545 -0.494,-0.991 0.133,-0.445 0.076,-0.725 -0.17,-0.84 -0.391,-0.183 -0.926,0.081 -1.607,0.789 l -2.059,4.404 -1.617,-0.755 2.6,-5.561 -0.631,-0.295 0.416,-0.893 2.141,1 -0.303,0.646 c 0.619,-0.36 1.238,-0.397 1.854,-0.109 0.596,0.278 0.979,0.638 1.146,1.08 0.136,0.352 0.127,0.693 -0.026,1.02 z"
         id="path86"
         style="fill:#d4ff17" /><path
         d="m 96.5216,42.7275 -0.504,-0.35 c -0.502,-0.348 -0.797,-0.739 -0.883,-1.171 -0.641,0.067 -1.268,-0.112 -1.881,-0.539 -0.635,-0.438 -1.043,-0.923 -1.229,-1.451 -0.213,-0.588 -0.115,-1.176 0.291,-1.762 0.826,-1.193 2.059,-1.221 3.699,-0.084 l 0.838,0.581 0.445,-0.642 c 0.258,-0.373 0.408,-0.704 0.449,-0.992 0.041,-0.289 -0.109,-0.552 -0.455,-0.791 -0.475,-0.329 -0.838,-0.312 -1.09,0.05 -0.025,0.038 -0.059,0.084 -0.096,0.141 -0.039,0.055 -0.068,0.097 -0.088,0.125 -0.291,0.419 -0.676,0.462 -1.154,0.13 -0.453,-0.313 -0.531,-0.684 -0.234,-1.113 0.246,-0.354 0.588,-0.586 1.023,-0.697 0.646,-0.158 1.381,0.046 2.199,0.615 1.52,1.052 1.768,2.315 0.748,3.787 l -1.666,2.402 c -0.264,0.383 -0.258,0.67 0.021,0.863 l 0.127,0.088 z m -1.15,-2.639 0.959,-1.383 -0.805,-0.558 c -0.646,-0.448 -1.186,-0.361 -1.619,0.263 -0.432,0.625 -0.357,1.138 0.225,1.542 0.408,0.283 0.82,0.328 1.24,0.136 z"
         id="path88"
         style="fill:#d4ff17" /><path
         d="m 100.1376,46.3015 -3.006,-2.932 0.688,-0.705 0.863,0.842 5.746,-5.89 -0.5,-0.487 0.689,-0.706 1.775,1.733 -6.432,6.597 0.863,0.843 z"
         id="path90"
         style="fill:#d4ff17" /><path
         d="m 73.9716,110.3545 -2.383,10.027 -2.273,-0.205 -1.074,-5.855 -2.077,5.574 -2.076,-0.186 -0.63,-10.297 1.918,0.172 0.396,7.596 0.027,0.002 2.396,-6.543 1.27,0.113 1.194,6.85 0.034,0.002 1.721,-7.389 z"
         id="path94"
         style="fill:#d4ff17" /><path
         d="m 81.6336,115.9205 c 0.174,1.211 -0.049,2.184 -0.666,2.912 -0.512,0.598 -1.215,0.963 -2.111,1.09 -0.898,0.127 -1.676,-0.025 -2.332,-0.457 -0.797,-0.527 -1.281,-1.398 -1.453,-2.609 l -0.047,-0.32 c -0.172,-1.211 0.051,-2.184 0.668,-2.91 0.51,-0.6 1.215,-0.963 2.111,-1.092 0.898,-0.127 1.674,0.025 2.332,0.457 0.797,0.529 1.281,1.398 1.453,2.609 z m -1.801,0.256 -0.045,-0.318 c -0.24,-1.684 -0.854,-2.455 -1.84,-2.314 -0.988,0.141 -1.361,1.053 -1.123,2.736 l 0.047,0.32 c 0.238,1.682 0.852,2.453 1.84,2.312 0.988,-0.141 1.361,-1.052 1.121,-2.736 z"
         id="path96"
         style="fill:#d4ff17" /><path
         d="m 88.3466,111.2625 c 0.201,0.627 0.01,1.033 -0.574,1.221 -0.484,0.154 -0.83,0.025 -1.035,-0.393 -0.205,-0.416 -0.438,-0.582 -0.695,-0.5 -0.41,0.131 -0.625,0.688 -0.645,1.67 l 1.482,4.631 -1.699,0.545 -1.871,-5.846 -0.664,0.213 -0.301,-0.939 2.25,-0.721 0.219,0.68 c 0.209,-0.686 0.637,-1.131 1.283,-1.34 0.627,-0.199 1.152,-0.195 1.576,0.014 0.34,0.165 0.564,0.421 0.674,0.765 z"
         id="path98"
         style="fill:#d4ff17" /><path
         d="m 97.9926,112.8325 -1.801,0.961 -3.172,-2.322 -0.18,0.703 1.42,2.654 -1.574,0.842 -4.346,-8.125 -0.613,0.328 -0.465,-0.871 2.189,-1.17 2.545,4.764 0.736,-3.029 1.48,-0.793 -0.75,3.027 z"
         id="path100"
         style="fill:#d4ff17" /><path
         d="m 102.4046,107.0005 c 0.447,0.584 0.562,1.201 0.348,1.852 -0.197,0.564 -0.627,1.102 -1.293,1.611 -0.686,0.523 -1.338,0.781 -1.959,0.771 -0.572,-0.004 -1.068,-0.232 -1.484,-0.684 l 0.791,-0.842 c 0.527,0.58 1.201,0.557 2.021,-0.068 0.693,-0.531 0.836,-1.062 0.43,-1.592 -0.357,-0.469 -1.045,-0.436 -2.062,0.1 -1.338,0.695 -2.389,0.545 -3.152,-0.455 -0.18,-0.234 -0.299,-0.492 -0.357,-0.775 -0.164,-0.83 0.229,-1.611 1.184,-2.34 0.99,-0.758 1.832,-1.018 2.529,-0.781 0.232,0.082 0.42,0.215 0.564,0.404 0.387,0.504 0.344,0.934 -0.123,1.293 -0.459,0.352 -0.865,0.297 -1.215,-0.162 l -0.094,-0.121 c -0.213,-0.279 -0.568,-0.229 -1.062,0.15 -0.559,0.426 -0.652,0.883 -0.279,1.369 0.289,0.379 0.846,0.352 1.672,-0.082 1.561,-0.81 2.742,-0.693 3.541,0.352 z"
         id="path102"
         style="fill:#d4ff17" /></g><circle
       style="fill:none;fill-opacity:1;stroke:#000000;stroke-width:1.565;stroke-dasharray:none;stroke-opacity:1"
       id="path10725"
       cx="114.34441"
       cy="142.59445"
       r="23.219858" /></g></svg>
